<?xml version="1.0" encoding="UTF-8" standalone="no"?>
<svg
   xmlns:dc="http://purl.org/dc/elements/1.1/"
   xmlns:cc="http://creativecommons.org/ns#"
   xmlns:rdf="http://www.w3.org/1999/02/22-rdf-syntax-ns#"
   xmlns:svg="http://www.w3.org/2000/svg"
   xmlns="http://www.w3.org/2000/svg"
   xmlns:sodipodi="http://sodipodi.sourceforge.net/DTD/sodipodi-0.dtd"
   xmlns:inkscape="http://www.inkscape.org/namespaces/inkscape"
   width="108.39274mm"
   height="23.660089mm"
   viewBox="0 0 108.39274 23.660089"
   version="1.1"
   id="svg1019"
   inkscape:version="1.0.1 (0767f8302a, 2020-10-17)"
   sodipodi:docname="logo-editorial-mingeneros.svg">
  <defs
     id="defs1013" />
  <sodipodi:namedview
     id="base"
     pagecolor="#ffffff"
     bordercolor="#666666"
     borderopacity="1.0"
     inkscape:pageopacity="0.0"
     inkscape:pageshadow="2"
     inkscape:zoom="0.35"
     inkscape:cx="278.20878"
     inkscape:cy="137.54994"
     inkscape:document-units="mm"
     inkscape:current-layer="layer1"
     inkscape:document-rotation="0"
     showgrid="false"
     fit-margin-top="0"
     fit-margin-left="0"
     fit-margin-right="0"
     fit-margin-bottom="0"
     inkscape:window-width="1515"
     inkscape:window-height="1016"
     inkscape:window-x="183"
     inkscape:window-y="1107"
     inkscape:window-maximized="0" />
  <metadata
     id="metadata1016">
    <rdf:RDF>
      <cc:Work
         rdf:about="">
        <dc:format>image/svg+xml</dc:format>
        <dc:type
           rdf:resource="http://purl.org/dc/dcmitype/StillImage" />
        <dc:title></dc:title>
      </cc:Work>
    </rdf:RDF>
  </metadata>
  <g
     inkscape:label="Capa 1"
     inkscape:groupmode="layer"
     id="layer1"
     transform="translate(-32.223926,-111.77324)">
    <g
       id="g15022"
       transform="translate(-11.19127,71.200181)"
       style="fill:#ffffff">
      <path
         d="m 57.288536,50.542214 c 0.60996,0.64734 0.9144,1.66475 0.9144,3.05188 v 6.34612 h -2.97709 v -6.18737 c 0,-0.57891 -0.11642,-0.99237 -0.3496,-1.24143 -0.23354,-0.24871 -0.55845,-0.37324 -0.97543,-0.37324 -0.29845,0 -0.58773,0.0575 -0.86784,0.17286 -0.27975,0.11501 -0.51964,0.29069 -0.7186,0.52705 0.0187,0.20567 0.0279,0.42651 0.0279,0.66287 v 6.43926 h -2.921 v -6.18737 c 0,-0.58491 -0.10866,-1.00013 -0.32668,-1.24601 -0.21766,-0.24589 -0.53516,-0.36866 -0.95179,-0.36866 -0.31715,0 -0.62689,0.0716 -0.92851,0.21484 -0.30163,0.14323 -0.54928,0.35455 -0.74189,0.63465 v 6.95255 h -2.98627 v -10.20975 h 2.45428 l 0.20531,1.03611 h 0.14006 c 0.72813,-0.79657 1.68275,-1.19486 2.86491,-1.19486 0.5662,0 1.07173,0.1076 1.51659,0.32209 0.44485,0.21484 0.80398,0.54928 1.07809,1.0033 0.42262,-0.45402 0.89887,-0.78846 1.42733,-1.0033 0.52917,-0.21449 1.07351,-0.32209 1.63337,-0.32209 1.04528,0 1.87254,0.32385 2.48249,0.9705"
         style="fill:#ffffff;fill-opacity:1;fill-rule:nonzero;stroke:none;stroke-width:0.352777"
         id="path12236" />
      <path
         d="m 60.806436,49.730814 h 2.98627 v 10.20939 h -2.98627 z m 0.65582,-2.34245 c -0.18556,-0.16227 -0.27835,-0.39158 -0.27835,-0.69144 0,-0.30339 0.0917,-0.53622 0.27552,-0.6985 0.1838,-0.16228 0.4632,-0.24342 0.8382,-0.24342 0.37148,0 0.64912,0.0811 0.83291,0.24342 0.1838,0.16228 0.27552,0.39511 0.27552,0.6985 0,0.29986 -0.0917,0.52917 -0.27552,0.69144 -0.18379,0.16228 -0.46143,0.23989 -0.83291,0.23989 -0.37112,0 -0.64946,-0.0776 -0.83537,-0.23989"
         style="fill:#ffffff;fill-opacity:1;fill-rule:nonzero;stroke:none;stroke-width:0.352777"
         id="path12238" />
      <g
         id="g12240"
         transform="matrix(0.35277777,0,0,-0.35277777,66.480516,49.730814)"
         style="fill:#ffffff">
        <path
           d="m 0,0 h 6.957 l 0.582,-2.937 h 0.397 c 1.058,1.094 2.31,1.932 3.756,2.514 1.446,0.582 3.025,0.873 4.736,0.873 3.05,0 5.458,-0.918 7.221,-2.751 1.764,-1.835 2.646,-4.709 2.646,-8.624 V -28.94 H 17.83 v 17.512 c 0,1.675 -0.344,2.862 -1.032,3.558 -0.688,0.697 -1.702,1.045 -3.042,1.045 -1.006,0 -1.985,-0.202 -2.937,-0.609 C 9.867,-7.84 9.082,-8.43 8.465,-9.206 V -28.94 H 0 Z"
           style="fill:#ffffff;fill-opacity:1;fill-rule:nonzero;stroke:none"
           id="path12242" />
      </g>
      <g
         id="g12244"
         transform="matrix(0.35277777,0,0,-0.35277777,83.894336,57.424894)"
         style="fill:#ffffff">
        <path
           d="m 0,0 c 0.829,0.29 1.535,0.728 2.116,1.309 v 14.179 c -1.058,0.247 -2.196,0.37 -3.412,0.37 -2.399,0 -4.198,-0.666 -5.397,-1.997 -1.199,-1.332 -1.799,-3.462 -1.799,-6.388 0,-2.91 0.503,-4.956 1.509,-6.137 1.004,-1.182 2.477,-1.773 4.417,-1.773 0.881,0 1.737,0.146 2.566,0.437 m -14.999,-18.108 v 6.613 c 3.122,-0.863 6.137,-1.296 9.047,-1.296 1.905,0 3.448,0.229 4.63,0.687 1.181,0.459 2.05,1.187 2.605,2.184 0.556,0.996 0.833,2.314 0.833,3.954 v 1.931 H 1.72 c -0.847,-1.04 -1.909,-1.847 -3.188,-2.42 -1.279,-0.573 -2.711,-0.86 -4.299,-0.86 -2.063,0 -3.946,0.511 -5.648,1.534 -1.702,1.023 -3.06,2.589 -4.073,4.696 -1.014,2.107 -1.522,4.722 -1.522,7.843 0,5.044 1.376,8.888 4.128,11.534 2.751,2.645 6.86,3.969 12.327,3.969 1.904,0 3.852,-0.137 5.846,-0.41 1.993,-0.275 3.756,-0.666 5.291,-1.178 V -4.405 c 0,-3.474 -0.578,-6.309 -1.733,-8.505 -1.155,-2.195 -2.897,-3.809 -5.224,-4.841 -2.328,-1.032 -5.3,-1.548 -8.916,-1.548 -3.492,0 -6.728,0.398 -9.708,1.191"
           style="fill:#ffffff;fill-opacity:1;fill-rule:nonzero;stroke:none"
           id="path12246" />
      </g>
      <g
         id="g12248"
         transform="matrix(0.35277777,0,0,-0.35277777,93.282456,52.034464)"
         style="fill:#ffffff">
        <path
           d="M 0,0 C -0.811,-1.094 -1.244,-2.927 -1.296,-5.502 H 8.412 C 8.359,-2.909 7.944,-1.071 7.169,0.014 6.393,1.098 5.211,1.641 3.624,1.641 2.019,1.641 0.811,1.094 0,0 M 16.296,-10.396 H -1.27 c 0.088,-1.552 0.419,-2.774 0.993,-3.664 0.572,-0.891 1.467,-1.535 2.684,-1.931 1.217,-0.397 2.875,-0.595 4.974,-0.595 2.204,0 4.638,0.308 7.301,0.925 v -6.322 c -2.822,-0.652 -5.653,-0.979 -8.492,-0.979 -3.686,0 -6.697,0.525 -9.034,1.574 -2.337,1.05 -4.07,2.676 -5.198,4.881 -1.129,2.204 -1.693,5.07 -1.693,8.597 0,3.175 0.525,5.878 1.574,8.109 1.049,2.23 2.579,3.919 4.59,5.066 2.01,1.145 4.444,1.719 7.301,1.719 4.091,0 7.208,-1.293 9.351,-3.876 2.144,-2.584 3.215,-6.344 3.215,-11.282 z"
           style="fill:#ffffff;fill-opacity:1;fill-rule:nonzero;stroke:none"
           id="path12250" />
      </g>
      <g
         id="g12252"
         transform="matrix(0.35277777,0,0,-0.35277777,101.14058,49.730814)"
         style="fill:#ffffff">
        <path
           d="m 0,0 h 6.957 l 0.582,-2.937 h 0.397 c 1.057,1.094 2.309,1.932 3.755,2.514 1.448,0.582 3.026,0.873 4.737,0.873 3.05,0 5.458,-0.918 7.221,-2.751 1.764,-1.835 2.646,-4.709 2.646,-8.624 V -28.94 h -8.466 v 17.512 c 0,1.675 -0.344,2.862 -1.031,3.558 -0.688,0.697 -1.702,1.045 -3.042,1.045 -1.006,0 -1.985,-0.202 -2.937,-0.609 C 9.866,-7.84 9.082,-8.43 8.465,-9.206 V -28.94 H 0 Z"
           style="fill:#ffffff;fill-opacity:1;fill-rule:nonzero;stroke:none"
           id="path12254" />
      </g>
      <g
         id="g12256"
         transform="matrix(0.35277777,0,0,-0.35277777,115.98794,52.034464)"
         style="fill:#ffffff">
        <path
           d="M 0,0 C -0.812,-1.094 -1.243,-2.927 -1.296,-5.502 H 8.412 C 8.359,-2.909 7.944,-1.071 7.169,0.014 6.393,1.098 5.211,1.641 3.624,1.641 2.019,1.641 0.812,1.094 0,0 M 16.296,-10.396 H -1.27 c 0.088,-1.552 0.419,-2.774 0.993,-3.664 0.572,-0.891 1.467,-1.535 2.684,-1.931 1.217,-0.397 2.874,-0.595 4.974,-0.595 2.204,0 4.638,0.308 7.301,0.925 v -6.322 c -2.822,-0.652 -5.653,-0.979 -8.492,-0.979 -3.686,0 -6.697,0.525 -9.034,1.574 -2.337,1.05 -4.07,2.676 -5.198,4.881 -1.129,2.204 -1.693,5.07 -1.693,8.597 0,3.175 0.525,5.878 1.574,8.109 1.049,2.23 2.579,3.919 4.59,5.066 2.01,1.145 4.444,1.719 7.3,1.719 4.092,0 7.209,-1.293 9.352,-3.876 2.144,-2.584 3.215,-6.344 3.215,-11.282 z"
           style="fill:#ffffff;fill-opacity:1;fill-rule:nonzero;stroke:none"
           id="path12258" />
      </g>
      <g
         id="g12260"
         transform="matrix(0.35277777,0,0,-0.35277777,123.84571,49.730814)"
         style="fill:#ffffff">
        <path
           d="m 0,0 h 6.903 l 0.662,-3.73 h 0.397 c 0.794,1.393 1.851,2.429 3.175,3.109 1.323,0.679 2.821,1.018 4.497,1.018 0.846,0 1.622,-0.071 2.328,-0.211 V -7.46 c -0.776,0.158 -1.729,0.238 -2.858,0.238 -1.288,0 -2.548,-0.247 -3.782,-0.74 C 10.087,-8.456 9.135,-9.136 8.465,-10 V -28.94 H 0 Z"
           style="fill:#ffffff;fill-opacity:1;fill-rule:nonzero;stroke:none"
           id="path12262" />
      </g>
      <g
         id="g12264"
         transform="matrix(0.35277777,0,0,-0.35277777,137.36804,57.587164)"
         style="fill:#ffffff">
        <path
           d="m 0,0 c 0.812,0.529 1.433,1.416 1.865,2.659 0.432,1.243 0.648,2.923 0.648,5.039 0,2.153 -0.216,3.863 -0.648,5.133 -0.432,1.27 -1.058,2.169 -1.878,2.698 -0.82,0.529 -1.848,0.793 -3.082,0.793 -1.235,0 -2.262,-0.264 -3.082,-0.793 C -6.997,15 -7.623,14.113 -8.056,12.87 -8.487,11.627 -8.703,9.938 -8.703,7.805 -8.703,5.652 -8.487,3.946 -8.056,2.686 -7.623,1.425 -7.002,0.529 -6.19,0 c 0.811,-0.529 1.842,-0.793 3.095,-0.793 1.252,0 2.283,0.264 3.095,0.793 m -10.647,-5.555 c -2.108,1.111 -3.731,2.783 -4.869,5.013 -1.136,2.231 -1.706,4.986 -1.706,8.268 0,4.972 1.226,8.715 3.678,11.228 2.45,2.514 5.934,3.771 10.449,3.771 4.497,0 7.975,-1.262 10.436,-3.784 2.46,-2.522 3.69,-6.243 3.69,-11.163 0,-3.299 -0.569,-6.067 -1.707,-8.307 -1.136,-2.24 -2.76,-3.915 -4.867,-5.026 -2.107,-1.111 -4.625,-1.667 -7.552,-1.667 -2.927,0 -5.445,0.556 -7.552,1.667"
           style="fill:#ffffff;fill-opacity:1;fill-rule:nonzero;stroke:none"
           id="path12266" />
      </g>
      <g
         id="g12268"
         transform="matrix(0.35277777,0,0,-0.35277777,143.21039,59.686214)"
         style="fill:#ffffff">
        <path
           d="M 0,0 V 6.189 C 2.856,5.325 5.907,4.894 9.152,4.894 c 1.834,0 3.161,0.242 3.982,0.727 0.82,0.485 1.23,1.194 1.23,2.13 0,0.723 -0.194,1.27 -0.583,1.64 -0.387,0.37 -1.067,0.652 -2.036,0.846 l -4.683,0.846 c -2.698,0.494 -4.673,1.425 -5.925,2.792 -1.252,1.366 -1.878,3.214 -1.878,5.542 0,1.887 0.502,3.521 1.508,4.907 1.004,1.384 2.526,2.455 4.563,3.214 2.036,0.758 4.564,1.138 7.578,1.138 1.376,0 2.738,-0.08 4.088,-0.239 1.349,-0.159 2.57,-0.379 3.663,-0.661 v -6.19 c -2.345,0.635 -4.849,0.952 -7.512,0.952 -4.021,0 -6.032,-0.971 -6.032,-2.91 0,-0.635 0.198,-1.147 0.595,-1.534 0.397,-0.388 1.063,-0.671 1.998,-0.846 L 14.39,16.4 c 2.681,-0.511 4.66,-1.415 5.939,-2.711 1.278,-1.295 1.918,-3.179 1.918,-5.648 0,-1.922 -0.507,-3.58 -1.521,-4.973 C 19.711,1.675 18.229,0.604 16.281,-0.146 14.333,-0.896 12.001,-1.271 9.285,-1.271 5.846,-1.271 2.751,-0.847 0,0"
           style="fill:#ffffff;fill-opacity:1;fill-rule:nonzero;stroke:none"
           id="path12270" />
      </g>
      <g
         id="g12272"
         transform="matrix(0.35277777,0,0,-0.35277777,43.415196,63.824294)"
         style="fill:#ffffff">
        <path
           d="M 0,0 H 89.184 V 5.802 H 0"
           style="fill:#ffffff;fill-opacity:1;fill-rule:nonzero;stroke:none"
           id="path12274" />
      </g>
      <g
         id="g12276"
         transform="matrix(0.35277777,0,0,-0.35277777,89.529256,63.824294)"
         style="fill:#ffffff">
        <path
           d="M 0,0 H 176.538 V 5.802 H 0"
           style="fill:#ffffff;fill-opacity:1;fill-rule:nonzero;stroke:none"
           id="path12278" />
      </g>
      <g
         id="g12280"
         transform="matrix(0.35277777,0,0,-0.35277777,43.684726,47.391894)"
         style="fill:#ffffff">
        <path
           d="M 0,0 C 0.315,0.019 0.576,0.069 0.78,0.153 0.984,0.236 1.142,0.371 1.253,0.558 1.365,0.742 1.42,0.983 1.42,1.28 v 16.095 c 0,0.315 -0.046,0.562 -0.139,0.738 -0.093,0.176 -0.246,0.307 -0.459,0.391 -0.214,0.083 -0.525,0.134 -0.933,0.152 v 0.418 h 15.064 l 0.278,-6.043 h -0.417 c -0.149,1.337 -0.492,2.413 -1.03,3.231 -0.539,0.816 -1.207,1.396 -2.005,1.74 -0.799,0.344 -1.68,0.516 -2.645,0.516 H 6.293 v -8.132 h 0.334 c 1.374,0 2.33,0.227 2.869,0.682 0.538,0.455 0.816,1.156 0.835,2.103 h 0.417 V 7.017 H 10.331 C 10.312,7.981 10.034,8.691 9.496,9.146 8.957,9.602 8.001,9.829 6.627,9.829 H 6.293 V 0.14 H 9.69 c 0.965,0 1.819,0.175 2.562,0.528 0.743,0.353 1.364,0.966 1.866,1.839 0.501,0.872 0.825,2.041 0.975,3.508 H 15.51 L 15.231,-0.418 H 0 Z"
           style="fill:#ffffff;fill-opacity:1;fill-rule:nonzero;stroke:none"
           id="path12282" />
      </g>
      <g
         id="g12284"
         transform="matrix(0.35277777,0,0,-0.35277777,52.211356,46.869794)"
         style="fill:#ffffff">
        <path
           d="M 0,0 C 0.631,0 1.119,0.436 1.462,1.309 1.806,2.181 1.978,3.434 1.978,5.068 1.978,6.701 1.806,7.954 1.462,8.827 1.119,9.699 0.631,10.136 0,10.136 -0.631,10.136 -1.113,9.699 -1.447,8.827 -1.782,7.954 -1.949,6.701 -1.949,5.068 -1.949,3.434 -1.782,2.181 -1.447,1.309 -1.113,0.436 -0.631,0 0,0 m 6.433,-0.195 c 0,-0.297 0.042,-0.538 0.125,-0.723 0.084,-0.186 0.19,-0.321 0.32,-0.404 0.13,-0.084 0.288,-0.135 0.474,-0.154 V -1.894 H 1.978 V 1.114 C 1.606,0.037 1.077,-0.779 0.39,-1.336 c -0.687,-0.558 -1.541,-0.836 -2.561,-0.836 -1.021,0 -1.89,0.278 -2.604,0.836 -0.715,0.557 -1.258,1.378 -1.629,2.464 -0.372,1.086 -0.557,2.399 -0.557,3.94 0,1.54 0.185,2.854 0.557,3.941 0.371,1.086 0.914,1.906 1.629,2.464 0.714,0.556 1.583,0.835 2.604,0.835 1.02,0 1.874,-0.279 2.561,-0.835 0.687,-0.558 1.216,-1.374 1.588,-2.451 v 6.822 c 0,0.502 -0.061,0.836 -0.182,1.003 -0.121,0.167 -0.403,0.258 -0.849,0.278 v 0.418 l 5.486,0.306 z"
           style="fill:#ffffff;fill-opacity:1;fill-rule:nonzero;stroke:none"
           id="path12286" />
      </g>
      <g
         id="g12288"
         transform="matrix(0.35277777,0,0,-0.35277777,56.464806,42.216644)"
         style="fill:#ffffff">
        <path
           d="m 0,0 c -0.743,0 -1.328,0.209 -1.754,0.627 -0.428,0.417 -0.641,0.988 -0.641,1.713 0,0.686 0.218,1.243 0.655,1.671 C -1.304,4.437 -0.724,4.65 0,4.65 0.743,4.65 1.336,4.437 1.782,4.011 2.228,3.583 2.451,3.026 2.451,2.34 2.451,1.615 2.228,1.044 1.782,0.627 1.336,0.209 0.743,0 0,0 m -2.952,-14.674 c 0.223,0.019 0.399,0.07 0.529,0.153 0.13,0.083 0.228,0.218 0.293,0.405 0.065,0.184 0.097,0.426 0.097,0.722 v 10.22 c 0,0.427 -0.069,0.738 -0.209,0.933 -0.139,0.195 -0.329,0.31 -0.571,0.348 v 0.418 l 5.235,0.306 v -12.225 c 0,-0.296 0.037,-0.538 0.112,-0.722 0.074,-0.187 0.176,-0.322 0.306,-0.405 0.13,-0.083 0.297,-0.134 0.502,-0.153 v -0.418 h -6.294 z"
           style="fill:#ffffff;fill-opacity:1;fill-rule:nonzero;stroke:none"
           id="path12290" />
      </g>
      <g
         id="g12292"
         transform="matrix(0.35277777,0,0,-0.35277777,59.912496,47.638834)"
         style="fill:#ffffff">
        <path
           d="M 0,0 C -1.225,0 -2.116,0.274 -2.673,0.821 -3.23,1.368 -3.509,2.265 -3.509,3.509 v 13.338 l 4.734,1.809 V 4.121 C 1.225,3.212 1.309,2.557 1.476,2.157 1.643,1.759 1.949,1.56 2.395,1.56 c 0.501,0 0.881,0.18 1.141,0.543 0.26,0.362 0.408,0.905 0.446,1.628 H 4.539 C 4.501,2.413 4.13,1.462 3.425,0.878 2.719,0.292 1.578,0 0,0 m -5.068,14.201 h 9.161 v -0.557 h -9.161 z"
           style="fill:#ffffff;fill-opacity:1;fill-rule:nonzero;stroke:none"
           id="path12294" />
      </g>
    </g>
  </g>
</svg>
